<svg id="visual" viewBox="0 0 900 600" width="900" height="600" xmlns="http://www.w3.org/2000/svg" xmlns:xlink="http://www.w3.org/1999/xlink" version="1.1"><rect x="0" y="0" width="900" height="600" fill="#1e1e1e"></rect><path d="M0 155L21.5 156C43 157 86 159 128.8 171.5C171.7 184 214.3 207 257.2 218.2C300 229.3 343 228.7 385.8 220.8C428.7 213 471.3 198 514.2 197C557 196 600 209 642.8 215.8C685.7 222.7 728.3 223.3 771.2 225C814 226.7 857 229.3 878.5 230.7L900 232L900 0L878.5 0C857 0 814 0 771.2 0C728.3 0 685.7 0 642.8 0C600 0 557 0 514.2 0C471.3 0 428.7 0 385.8 0C343 0 300 0 257.2 0C214.3 0 171.7 0 128.8 0C86 0 43 0 21.5 0L0 0Z" fill="#ebebeb"></path><path d="M0 185L21.5 177C43 169 86 153 128.8 149.5C171.7 146 214.3 155 257.2 152.5C300 150 343 136 385.8 132.7C428.7 129.3 471.3 136.7 514.2 137.2C557 137.7 600 131.3 642.8 140.3C685.7 149.3 728.3 173.7 771.2 174.2C814 174.7 857 151.3 878.5 139.7L900 128L900 0L878.5 0C857 0 814 0 771.2 0C728.3 0 685.7 0 642.8 0C600 0 557 0 514.2 0C471.3 0 428.7 0 385.8 0C343 0 300 0 257.2 0C214.3 0 171.7 0 128.8 0C86 0 43 0 21.5 0L0 0Z" fill="#c2ddda"></path><path d="M0 151L21.5 142.5C43 134 86 117 128.8 118.2C171.7 119.3 214.3 138.7 257.2 146.5C300 154.3 343 150.7 385.8 144.5C428.7 138.3 471.3 129.7 514.2 131.3C557 133 600 145 642.8 148.7C685.7 152.3 728.3 147.7 771.2 139.2C814 130.7 857 118.3 878.5 112.2L900 106L900 0L878.5 0C857 0 814 0 771.2 0C728.3 0 685.7 0 642.8 0C600 0 557 0 514.2 0C471.3 0 428.7 0 385.8 0C343 0 300 0 257.2 0C214.3 0 171.7 0 128.8 0C86 0 43 0 21.5 0L0 0Z" fill="#98cfca"></path><path d="M0 74L21.5 74.8C43 75.7 86 77.3 128.8 83.3C171.7 89.3 214.3 99.7 257.2 99.3C300 99 343 88 385.8 83.3C428.7 78.7 471.3 80.3 514.2 77.2C557 74 600 66 642.8 66.8C685.7 67.7 728.3 77.3 771.2 80.5C814 83.7 857 80.3 878.5 78.7L900 77L900 0L878.5 0C857 0 814 0 771.2 0C728.3 0 685.7 0 642.8 0C600 0 557 0 514.2 0C471.3 0 428.7 0 385.8 0C343 0 300 0 257.2 0C214.3 0 171.7 0 128.8 0C86 0 43 0 21.5 0L0 0Z" fill="#69c1ba"></path><path d="M0 72L21.5 71.2C43 70.3 86 68.7 128.8 64.2C171.7 59.7 214.3 52.3 257.2 49.7C300 47 343 49 385.8 52.5C428.7 56 471.3 61 514.2 62.8C557 64.7 600 63.3 642.8 63.8C685.7 64.3 728.3 66.7 771.2 62.8C814 59 857 49 878.5 44L900 39L900 0L878.5 0C857 0 814 0 771.2 0C728.3 0 685.7 0 642.8 0C600 0 557 0 514.2 0C471.3 0 428.7 0 385.8 0C343 0 300 0 257.2 0C214.3 0 171.7 0 128.8 0C86 0 43 0 21.5 0L0 0Z" fill="#20b2aa"></path></svg>